<?xml version="1.0" encoding="utf-8"?>
<svg xmlns="http://www.w3.org/2000/svg" viewBox="0 0 500 500">
  <g id="SVGRepo_bgCarrier" stroke-width="0" transform="matrix(0.910596, 0, 0, 0.949396, 15.430802, 10.188907)" style=""/>
  <g id="SVGRepo_tracerCarrier" stroke-linecap="round" stroke-linejoin="round" transform="matrix(0.910596, 0, 0, 0.949396, 15.430802, 10.188907)" style=""/>
  <g id="SVGRepo_iconCarrier" transform="matrix(0.910596, 0, 0, 0.949396, 15.430802, 10.188907)" style="">
    <circle cx="78.4" cy="447.9" r="29.9" style="fill: rgb(199, 199, 199);"/>
    <circle cx="140.5" cy="391.4" r="35.9" style="fill: rgb(199, 199, 199);"/>
    <circle cx="24.4" cy="488" r="18.7" style="fill: rgb(199, 199, 199);"/>
    <path d="M481.1 193.8c3.8-13.2 5.8-27.1 5.8-41.5C486.8 68.6 419 .7 335.3.7c-57.6 0-107.7 32.2-133.4 79.5c-16.5-14.1-38-22.6-61.4-22.6c-52.3 0-94.7 42.4-94.7 94.7c0 24.1 9 46.2 23.9 62.9c-14.6 12.6-23.9 31.2-23.9 52c0 37.9 30.7 68.7 68.7 68.7c15.4 0 29.7-5.1 41.2-13.7c14.6 40.4 53.3 69.3 98.7 69.3c42.9 0 79.8-25.8 96-62.7c15.8 11.9 35.5 18.9 56.8 18.9c52.3 0 94.7-42.4 94.7-94.7c0-22.4-7.8-43-20.8-59.2z" style="fill: rgb(199, 199, 199);"/>
    <text style="fill: rgb(199, 199, 199); font-family: Arial, sans-serif; font-size: 20px; text-anchor: middle; white-space: pre;" x="320" y="70">Dreamy thoughts...</text>
    <text style="white-space: pre; fill: rgb(51, 51, 51); font-family: Arial, sans-serif; font-size: 28px;" transform="matrix(1.098182, 0, 0, 1.053301, 164.911209, 187.324646)">Hello</text>
  </g>
</svg>